<svg xmlns="http://www.w3.org/2000/svg" viewBox="0 0 64 64" fill="none">
  <defs>
    <linearGradient id="sf-bg" x1="0" y1="0" x2="64" y2="64" gradientUnits="userSpaceOnUse">
      <stop offset="0" stop-color="#f07040"/>
      <stop offset="1" stop-color="#d4522a"/>
    </linearGradient>
    <linearGradient id="sf-mark" x1="0" y1="0" x2="0" y2="1">
      <stop offset="0" stop-color="#ffffff"/>
      <stop offset="1" stop-color="#fff1e6"/>
    </linearGradient>
  </defs>
  <rect width="64" height="64" rx="14" fill="url(#sf-bg)"/>
  <path d="M44 24c0-5.5-5.4-9-12-9s-12 3.5-12 9c0 4.6 3.6 7.4 9.6 8.6l5.4 1.1c4.2.9 6.4 2.3 6.4 4.8 0 3.2-3.2 5-7.4 5s-7.6-1.9-7.8-5h-6c.2 6.5 5.6 10.5 13.8 10.5 8 0 13.4-3.8 13.4-10.5 0-5-3.4-7.7-9.4-9l-5.6-1.2c-4-.8-6.4-1.9-6.4-4.5 0-2.8 2.8-4.4 6.6-4.4 3.6 0 6.4 1.5 6.6 4.6h6z" fill="url(#sf-mark)"/>
  <path d="M16 49c4 3 8 4.5 16 4.5s12-1.5 16-4.5" stroke="#ffffff" stroke-width="2.4" stroke-linecap="round" fill="none" opacity="0.55"/>
</svg>
